<svg width="28" height="24" viewBox="0 0 28 24" fill="none" xmlns="http://www.w3.org/2000/svg">
<g clip-path="url(#clip0_6801_3744)">
<path d="M25.291 12.0511C25.2956 14.1957 24.7979 16.3109 23.8386 18.2234C23.6838 18.5283 23.6474 18.8808 23.7365 19.2116C23.8256 19.5423 24.0339 19.8273 24.3203 20.0106C24.4791 20.1122 24.6571 20.1791 24.843 20.2071C25.0288 20.2351 25.2184 20.2236 25.3995 20.1733C25.5807 20.1229 25.7495 20.0348 25.8951 19.9146C26.0407 19.7945 26.1599 19.6449 26.2451 19.4755C27.4024 17.176 28.0038 14.6315 28 12.0511C28.0039 9.47516 27.4047 6.93494 26.2513 4.63845C26.1661 4.46888 26.047 4.31918 25.9013 4.1989C25.7557 4.07862 25.5868 3.99041 25.4056 3.94001C25.2244 3.88957 25.0346 3.878 24.8487 3.90602C24.6628 3.93405 24.4847 4.00104 24.3258 4.10274C24.0397 4.28605 23.8316 4.57098 23.7425 4.90155C23.6534 5.23212 23.6896 5.58441 23.8441 5.88933C24.7999 7.7991 25.2957 9.91047 25.291 12.0511Z" fill="#6FBAF7"/>
<path d="M20.9117 12.0507C20.914 13.3802 20.631 14.6945 20.0821 15.9026C19.9446 16.2048 19.9205 16.5474 20.0142 16.8664C20.1079 17.1854 20.313 17.4591 20.5914 17.6363C20.7548 17.7402 20.9383 17.8076 21.1296 17.834C21.3208 17.8604 21.5154 17.8452 21.7004 17.7894C21.8854 17.7337 22.0564 17.6386 22.2022 17.5106C22.348 17.3827 22.4651 17.2247 22.5457 17.0472C23.2575 15.4801 23.6245 13.7753 23.6213 12.0507C23.6245 10.3306 23.2594 8.63025 22.5512 7.06651C22.4708 6.88891 22.3538 6.7307 22.2081 6.60252C22.0624 6.47434 21.8913 6.37916 21.7062 6.32333C21.5212 6.2675 21.3265 6.25228 21.1352 6.27876C20.9439 6.30524 20.7604 6.37275 20.5969 6.47678C20.3187 6.65371 20.1135 6.92699 20.0197 7.24564C19.9259 7.56429 19.9498 7.90659 20.087 8.20871C20.6328 9.41414 20.9142 10.7248 20.9117 12.0507Z" fill="#6FBAF7"/>
<path d="M11.8091 21.2586C10.6132 21.262 9.42861 21.0253 8.32378 20.5623C7.21894 20.0993 6.21584 19.4192 5.37258 18.5614C4.52472 17.7083 3.85255 16.6936 3.39492 15.576C2.9373 14.4583 2.70333 13.2599 2.70656 12.0502C2.70325 10.8403 2.93719 9.64182 3.39481 8.52404C3.85244 7.40627 4.52468 6.39143 5.37258 5.53829C6.21584 4.68043 7.21894 4.00032 8.32378 3.53735C9.42861 3.07437 10.6132 2.8377 11.8091 2.84105C13.8215 2.83231 15.7787 3.50614 17.3681 4.75486C17.6282 4.95965 17.9531 5.06143 18.282 5.04121C18.6109 5.02099 18.9213 4.88014 19.1549 4.64502C19.2908 4.50766 19.3961 4.34254 19.4638 4.16073C19.5316 3.97892 19.5601 3.78455 19.5477 3.59065C19.5353 3.39675 19.4821 3.20777 19.3917 3.03633C19.3013 2.86488 19.1758 2.71492 19.0236 2.59647C16.9599 0.976328 14.4212 0.098435 11.8091 0.101603C10.2578 0.0974848 8.72118 0.404566 7.28797 1.0051C5.8548 1.60563 4.55354 2.48768 3.45943 3.60024C2.35924 4.70722 1.487 6.02399 0.8932 7.4743C0.299396 8.92465 -0.00417787 10.4797 4.34258e-05 12.0495C-0.000723162 13.6189 0.304427 15.1731 0.89803 16.623C1.49163 18.0729 2.36204 19.3902 3.45943 20.4994C4.55377 21.6126 5.8555 22.4952 7.28922 23.0961C8.72297 23.697 10.2602 24.0042 11.8121 24C14.4321 24.0073 16.979 23.1266 19.0463 21.4982C19.1954 21.3806 19.318 21.2322 19.4062 21.063C19.4943 20.8937 19.5459 20.7075 19.5575 20.5166C19.569 20.3256 19.5404 20.1344 19.4735 19.9555C19.4065 19.7766 19.3027 19.6141 19.169 19.4789L19.1402 19.4503C18.9109 19.2182 18.6058 19.0787 18.2821 19.0578C17.9584 19.0368 17.6383 19.136 17.3817 19.3367C15.7871 20.5866 13.8262 21.263 11.8091 21.2586Z" fill="#007CFF"/>
<path d="M18.8877 11.0758C18.6321 10.8171 18.2854 10.6717 17.9238 10.6717L13.1814 10.6772C12.8198 10.6774 12.473 10.8229 12.2173 11.0817C11.9616 11.3404 11.818 11.6913 11.818 12.0572C11.818 12.4233 11.9617 12.7743 12.2175 13.0332C12.4733 13.2921 12.8202 13.4376 13.182 13.4378H13.1906L16.3604 13.4335C16.0565 14.4508 15.4281 15.3376 14.5733 15.9553C13.7185 16.573 12.6855 16.8868 11.6358 16.8477C9.07285 16.7527 7.0339 14.5788 7.06886 11.9846C7.08597 10.7228 7.5934 9.51859 8.48135 8.63244C9.36934 7.74625 10.5665 7.24941 11.8137 7.24937C12.7069 7.24705 13.5823 7.50152 14.338 7.98314C14.6008 8.14878 14.9115 8.21924 15.219 8.18293C15.5266 8.14661 15.8128 8.00568 16.0309 7.78323C16.175 7.63785 16.2849 7.46155 16.3525 7.26739C16.4202 7.07322 16.4438 6.86615 16.4218 6.66148C16.3997 6.45682 16.3324 6.25978 16.2249 6.08497C16.1174 5.91017 15.9725 5.76204 15.8008 5.65152C14.1791 4.61236 12.2003 4.23615 10.1957 4.65827C8.79079 4.95918 7.50337 5.66875 6.4916 6.69977C5.47979 7.73078 4.78772 9.03835 4.50041 10.4618C3.51868 15.3218 7.17993 19.6101 11.8137 19.6101C13.7951 19.6078 15.6947 18.8105 17.0957 17.393C18.4968 15.9756 19.2849 14.0537 19.2872 12.0492C19.2864 11.6841 19.1428 11.3341 18.8877 11.0758Z" fill="#002CB8"/>
</g>
<defs>
<clipPath id="clip0_6801_3744">
<rect width="28" height="24" fill="white"/>
</clipPath>
</defs>
</svg>
