<svg width="63" height="16" viewBox="0 0 63 16" fill="none" xmlns="http://www.w3.org/2000/svg">
<path d="M1.43394 6.53885C1.43394 9.04052 3.33057 10.9594 5.78229 10.9594C8.23401 10.9594 9.32869 9.44001 9.32869 7.76686V7.16796H5.8902V8.08913H8.38847C8.40398 8.99486 7.571 10.0537 5.78229 10.0537C3.80877 10.0537 2.43621 8.59537 2.43621 6.53885C2.43621 4.48232 3.91669 3.06968 5.95158 3.06968C7.2776 3.06968 8.32641 3.39195 9.29766 4.06739L9.35904 4.02106V3.16166C8.63398 2.65542 7.40103 2.16395 5.92056 2.16395C3.40746 2.16395 1.43326 4.09828 1.43326 6.53885H1.43394ZM0 6.53885C0 9.85426 2.46724 12.3257 5.78229 12.3257C8.80462 12.3257 10.6547 10.4377 10.6547 7.38348V5.81776H5.8902V6.70804H9.79138V7.53724C9.79138 9.93148 8.29539 11.4207 5.78229 11.4207C3.02233 11.4207 0.971246 9.31781 0.971246 6.53952C0.971246 3.76123 3.13025 1.7047 5.92123 1.7047C7.24725 1.7047 8.44984 2.02698 9.35971 2.65609V1.75036C8.48087 1.12125 7.32414 0.798974 5.92123 0.798974C2.57515 0.798974 0 3.33153 0 6.53952V6.53885ZM12.6134 7.32171V12.0645H13.5233V7.33715C13.5233 6.27834 14.2173 5.52569 15.2506 5.52569C15.5588 5.52569 15.8367 5.60223 16.1294 5.7251C16.2529 5.43371 16.3763 5.18797 16.5301 4.95768C16.2063 4.74283 15.7281 4.60452 15.2654 4.60452C13.7081 4.60452 12.6134 5.7251 12.6134 7.32171ZM11.2719 12.0645H12.1817V7.32171C12.1817 5.44915 13.4464 4.17482 15.2809 4.17482C15.8974 4.17482 16.5301 4.37423 16.8073 4.54342C16.9766 4.34401 17.1621 4.12916 17.4089 3.92975C16.8383 3.53094 16.0674 3.30064 15.2351 3.30064C12.8144 3.30064 11.2725 4.92747 11.2725 7.33783V12.0652L11.2719 12.0645ZM25.535 6.7537V8.08913C26.0746 7.36737 26.5373 6.73826 26.969 6.21657C28.0636 4.88114 29.02 4.14461 30.4998 4.14461C32.5044 4.14461 33.9693 5.64856 33.9693 7.76686C33.9693 9.88515 32.5354 11.42 30.5619 11.42C28.958 11.42 27.5706 10.3303 27.2468 8.84111L26.5993 9.71595C27.1079 11.1743 28.6039 12.3251 30.547 12.3251C33.0453 12.3251 34.8799 10.3296 34.8799 7.76618C34.8799 5.20275 33.0298 3.22276 30.5005 3.22276C27.9712 3.22276 26.6762 5.17186 25.5357 6.75303L25.535 6.7537ZM28.357 7.42914H28.326L27.6164 8.39597C27.7399 9.50111 28.8656 10.9748 30.5619 10.9748C32.2582 10.9748 33.5377 9.57832 33.5377 7.75141C33.5377 5.92451 32.2575 4.57431 30.4998 4.57431C28.7422 4.57431 27.8013 5.81776 27.1072 6.73826C26.768 7.1834 26.1818 7.90449 25.5343 8.81022V10.284C26.136 9.39368 26.9528 8.34964 27.5544 7.62855C28.5722 6.41598 29.1887 5.49481 30.4843 5.49481C31.78 5.49481 32.6123 6.46164 32.6123 7.75141C32.6123 9.04119 31.7948 10.0691 30.5612 10.0691C29.2662 10.0691 28.3563 8.88744 28.3563 7.56745V7.42914H28.357ZM27.4472 0V3.82233C27.725 3.60748 28.0333 3.3463 28.357 3.22343V0H27.4472ZM26.0901 5.21886C26.368 4.8657 26.6762 4.48232 27 4.16005V0.000672065H26.0901V5.21953V5.21886ZM22.3893 9.59376L22.3737 9.57832C21.9879 9.88515 21.356 10.0698 20.755 10.0698C19.5214 10.0698 18.596 9.14862 18.596 7.78297C18.596 6.41732 19.5059 5.48071 20.724 5.48071C22.0345 5.48071 22.8364 6.43209 22.8364 7.70643V12.0659H23.7463V7.66077C23.7463 5.8802 22.4972 4.57565 20.7395 4.57565C18.9818 4.57565 17.6558 5.8802 17.6558 7.78364C17.6558 9.68709 18.9818 11.0225 20.7395 10.9762C21.4025 10.9607 22.081 10.715 22.3893 10.5002V9.59443V9.59376ZM16.2832 7.76686C16.2832 10.4377 18.1798 12.3257 20.7395 12.3257C21.3101 12.3257 21.9731 12.1572 22.3893 11.8343V10.9285C22.1114 11.1588 21.4335 11.42 20.7395 11.42C18.6425 11.42 17.2241 9.94625 17.2241 7.76686C17.2241 5.58746 18.7349 4.14461 20.7395 4.14461C22.744 4.14461 24.178 5.60291 24.178 7.64399V12.0645H25.1033V7.62855C25.1033 5.08055 23.2991 3.20799 20.7395 3.20799C18.1798 3.20799 16.2832 5.18798 16.2832 7.76686Z" fill="#00B14F"/>
<path fill-rule="evenodd" clip-rule="evenodd" d="M55.8729 12.9367C55.9384 12.9884 55.9862 13.0247 56.0335 13.0629C56.7255 13.6222 57.5112 13.9767 58.3955 14.0902C58.9836 14.1654 59.5718 14.154 60.1316 13.9217C60.7561 13.6625 61.0691 13.1717 61.1258 12.5184C61.1561 12.174 61.144 11.8248 61.15 11.4784C61.15 11.4495 61.144 11.4207 61.1392 11.381C61.1163 11.3925 61.1001 11.3958 61.0914 11.4052C60.6981 11.8517 60.1842 12.0827 59.6149 12.1955C58.6902 12.3781 57.7938 12.2794 56.9555 11.8369C56.0584 11.3636 55.5411 10.5928 55.2929 9.63001C55.1958 9.25201 55.1526 8.86595 55.1526 8.47519C55.1526 6.76175 55.1526 5.04899 55.1526 3.33555C55.1526 3.23618 55.2039 3.18627 55.3064 3.18583C55.8992 3.18583 56.4928 3.18851 57.0856 3.18314C57.205 3.1818 57.2327 3.21805 57.232 3.33354C57.2286 5.07383 57.2199 6.81412 57.2347 8.55441C57.2414 9.35473 57.719 10.1631 58.732 10.3383C59.3182 10.4397 59.876 10.3471 60.3575 9.97176C60.7211 9.68775 60.9045 9.299 60.9632 8.85117C60.9861 8.67594 60.9882 8.49802 60.9882 8.32076C60.9895 6.66171 60.9888 5.00199 60.9888 3.34294C60.9888 3.23864 61.0417 3.1865 61.1473 3.1865C61.7247 3.1865 62.3027 3.18784 62.8801 3.18516C62.9684 3.18516 62.9995 3.20932 62.9995 3.30332C62.9968 6.37502 63.0062 9.44605 62.9907 12.5177C62.9866 13.3583 62.7364 14.1358 62.1597 14.7804C61.6768 15.3195 61.063 15.6371 60.371 15.8197C59.9623 15.9272 59.5448 15.9748 59.1219 15.9943C57.9483 16.0473 56.9002 15.7224 55.9802 14.9919C55.8972 14.9261 55.8608 14.8563 55.8615 14.7482C55.8669 14.1808 55.8642 13.6142 55.8642 13.0468C55.8642 13.0206 55.8675 12.9938 55.8716 12.9394L55.8729 12.9367Z" fill="#00B14F"/>
<path fill-rule="evenodd" clip-rule="evenodd" d="M38.3461 12.3223H38.2072C37.6372 12.3223 37.0673 12.3183 36.4981 12.3257C36.3753 12.327 36.3503 12.2887 36.3503 12.1759C36.353 9.75686 36.3524 7.33711 36.3524 4.91802C36.3524 3.75313 36.3524 2.58756 36.3524 1.42199C36.3524 1.26958 36.3524 1.26958 36.5041 1.26958C37.9192 1.26958 39.3342 1.24608 40.7486 1.28033C41.7704 1.3045 42.7066 1.61401 43.4472 2.36331C43.9119 2.83329 44.1857 3.40601 44.3098 4.04854C44.4677 4.86363 44.4501 5.67537 44.1736 6.46494C43.7581 7.652 42.8948 8.35093 41.6929 8.66515C41.2868 8.77124 40.872 8.81353 40.4525 8.81353C39.8016 8.81286 39.1501 8.81353 38.4985 8.81353C38.3461 8.81353 38.3454 8.81421 38.3454 8.96729C38.3454 10.0362 38.3454 11.1051 38.3454 12.1739V12.323L38.3461 12.3223ZM39.4826 6.96447C39.7578 6.96447 40.033 6.9732 40.3075 6.96179C40.5422 6.95239 40.7803 6.9403 41.0096 6.89263C41.6369 6.76171 42.0935 6.41325 42.3039 5.79421C42.4719 5.29938 42.4753 4.79515 42.3282 4.29428C42.1852 3.80885 41.8703 3.47516 41.3961 3.28716C41.1 3.16967 40.7911 3.12334 40.4781 3.11931C39.8043 3.11126 39.1305 3.1173 38.4561 3.11596C38.3704 3.11596 38.3448 3.14818 38.3448 3.23211C38.3468 4.43527 38.3475 5.63844 38.3448 6.84093C38.3448 6.93896 38.3778 6.96649 38.4716 6.96515C38.8088 6.96112 39.1454 6.9638 39.4826 6.9638V6.96447Z" fill="#00B14F"/>
<path fill-rule="evenodd" clip-rule="evenodd" d="M49.3226 3.23438C51.9544 3.23438 53.8368 4.82561 53.8368 7.80197V12.3058H52.0502V10.8099H51.9706C51.5558 11.8284 50.4874 12.5294 49.2909 12.5448C46.6591 12.577 44.873 10.7145 44.873 7.91342C44.873 5.11231 46.6914 3.23438 49.3232 3.23438H49.3226ZM49.3226 10.7938C50.9177 10.7783 52.0185 9.6799 52.0023 7.8342C51.9868 5.92404 50.8219 4.9693 49.3388 4.9693C47.8556 4.9693 46.7225 6.13083 46.7225 7.81809C46.7225 9.66446 47.8394 10.8099 49.3226 10.7938Z" fill="#00B14F"/>
</svg>
