<svg width="83" height="24" viewBox="0 0 83 24" fill="none" xmlns="http://www.w3.org/2000/svg">
<g clip-path="url(#clip0_6804_3918)">
<path d="M18.6188 0.111816C16.7121 0.111816 14.9175 0.837398 13.5715 2.17693L14.3006 3.57228L14.0202 3.79554C13.4033 2.67926 12.4499 1.78623 11.3844 1.11647C10.2627 0.502514 9.02896 0.111816 7.7391 0.111816C3.70126 0.16763 0.504639 3.6281 0.504639 7.75833V16.5211C0.504639 16.5769 0.504639 16.6886 0.56072 16.7444C0.56072 16.8002 0.616801 16.856 0.672882 16.9118C0.728963 16.9676 0.785044 17.0234 0.841125 17.0234C0.897206 17.0234 1.00937 17.0793 1.06545 17.0793H3.92558C3.98167 17.0793 4.09383 17.0793 4.14991 17.0234C4.20599 17.0234 4.26207 16.9676 4.31815 16.9118C4.37423 16.856 4.43031 16.8002 4.43031 16.7444C4.4864 16.6886 4.4864 16.6327 4.4864 16.5769V7.6467C4.4864 5.6374 5.72018 3.96298 7.85126 3.96298C9.8141 3.96298 11.2161 5.41414 11.2161 7.59089V14.9025C11.2161 14.9583 11.2161 15.07 11.2722 15.1258C11.2722 15.1816 11.3283 15.2374 11.3844 15.2932C11.4404 15.349 11.4965 15.4048 11.5526 15.4048C11.6087 15.4607 11.6648 15.4607 11.7769 15.4607H14.5249C14.581 15.4607 14.6932 15.4607 14.7492 15.4048C14.8053 15.349 14.8614 15.349 14.9175 15.2932C14.9736 15.2374 15.0296 15.1816 15.0296 15.1258C15.0296 15.07 15.0857 14.9583 15.0857 14.9025V7.59089C15.0296 7.14437 15.1418 6.64205 15.254 6.19554C15.4222 5.74903 15.6465 5.35833 15.983 5.02344C16.3195 4.68856 16.7121 4.40949 17.1046 4.24205C17.5533 4.07461 18.0019 3.96298 18.4506 3.96298C20.5256 3.96298 21.7033 5.6374 21.7033 7.6467V16.5211C21.7033 16.6886 21.7594 16.8002 21.8715 16.9118C21.9837 17.0234 22.0959 17.0793 22.2641 17.0793H25.1242C25.1803 17.0793 25.2925 17.0793 25.3486 17.0234C25.4046 17.0234 25.4607 16.9676 25.5168 16.9118C25.5729 16.856 25.629 16.8002 25.629 16.7444C25.629 16.6886 25.685 16.5769 25.685 16.5211V7.70251C25.685 3.6281 22.6006 0.111816 18.6188 0.111816Z" fill="#2FF19E"/>
<path d="M44.6404 0.4467H42.0046C41.9486 0.4467 41.8364 0.4467 41.7803 0.502514C41.7242 0.502514 41.6681 0.558328 41.6121 0.614142C41.556 0.669956 41.4999 0.72577 41.4999 0.781584C41.4999 0.837398 41.4438 0.949026 41.4438 1.00484V1.33972L42.3972 2.79089L42.1168 3.01414C41.3317 2.12112 40.3783 1.39554 39.3127 0.893212C38.2472 0.390886 37.0695 0.111816 35.8918 0.111816C33.6486 0.223444 31.5175 1.17228 30.0033 2.79089C28.4891 4.40949 27.5918 6.53042 27.5918 8.70717C27.5918 10.8839 28.433 13.0607 29.9472 14.6793C31.4614 16.2979 33.5925 17.2467 35.7796 17.3583C36.9573 17.3583 38.135 17.0793 39.2567 16.5769C40.3222 16.0746 41.3317 15.349 42.0607 14.456L42.285 14.6234L41.3317 16.1304V16.4653C41.3317 16.5211 41.3317 16.6327 41.3877 16.6886C41.4438 16.7444 41.4438 16.8002 41.4999 16.856C41.556 16.9118 41.6121 16.9676 41.6681 16.9676C41.7242 17.0234 41.8364 17.0234 41.8925 17.0234H44.5844C44.6404 17.0234 44.7526 17.0234 44.8087 16.9676C44.8648 16.9676 44.9208 16.9118 44.9769 16.856C45.033 16.8002 45.0891 16.7444 45.0891 16.6886C45.0891 16.6327 45.1452 16.5211 45.1452 16.4653V1.00484C45.1452 0.949026 45.1452 0.837398 45.0891 0.781584C45.0891 0.72577 45.033 0.669956 44.9769 0.614142C44.9208 0.558328 44.8648 0.502514 44.8087 0.502514C44.7526 0.4467 44.6965 0.4467 44.6404 0.4467ZM35.7796 13.6746C34.4898 13.6746 33.1999 13.1723 32.3026 12.2234C31.3492 11.3304 30.8445 10.0467 30.8445 8.76298C30.8445 7.47926 31.3492 6.19554 32.3026 5.30251C33.256 4.35368 34.4898 3.85135 35.7796 3.85135C37.0695 3.85135 38.3594 4.35368 39.2567 5.30251C40.21 6.25135 40.7148 7.47926 40.7148 8.76298C40.7148 10.0467 40.21 11.3304 39.2567 12.2234C38.3594 13.1723 37.1256 13.6746 35.7796 13.6746Z" fill="#2FF19E"/>
<path d="M82.2709 0.4467H79.6351C79.579 0.4467 79.4668 0.4467 79.4107 0.502514C79.3547 0.502514 79.2986 0.558328 79.2425 0.614142C79.1864 0.669956 79.1303 0.72577 79.1303 0.781584C79.0743 0.837398 79.0743 0.949026 79.0743 1.00484V1.33972L80.0276 2.79089L79.7472 3.01414C78.9621 2.12112 78.0087 1.39554 76.9432 0.893212C75.8776 0.390886 74.6999 0.111816 73.5222 0.111816C71.2229 0.111816 69.0357 1.00484 67.4094 2.62344C65.783 4.24205 64.8857 6.41879 64.8857 8.70716C64.8857 10.9955 65.783 13.1723 67.4094 14.7909C69.0357 16.4095 71.2229 17.3025 73.5222 17.3025C74.6999 17.3025 75.8776 17.0234 76.9993 16.5211C78.0648 16.0188 79.0743 15.2932 79.8033 14.4002L80.0276 14.5676L79.0743 16.1862V16.5211C79.0743 16.5769 79.0743 16.6886 79.1303 16.7444C79.1864 16.8002 79.1864 16.856 79.2425 16.9118C79.2986 16.9676 79.3547 17.0234 79.4107 17.0234C79.4668 17.0793 79.579 17.0793 79.6351 17.0793H82.2709C82.327 17.0793 82.4391 17.0793 82.4952 17.0234C82.5513 17.0234 82.6074 16.9676 82.6634 16.9118C82.7195 16.856 82.7756 16.8002 82.7756 16.7444C82.7756 16.6886 82.8317 16.5769 82.8317 16.5211V1.00484C82.8317 0.949026 82.8317 0.837398 82.7756 0.781584C82.7756 0.72577 82.7195 0.669956 82.6634 0.614142C82.6074 0.558328 82.5513 0.502514 82.4952 0.502514C82.383 0.4467 82.327 0.4467 82.2709 0.4467ZM73.4661 13.6746C72.1763 13.6746 70.8864 13.1723 69.9891 12.2234C69.0918 11.2746 68.531 10.0467 68.531 8.76298C68.531 7.47926 69.0357 6.19554 69.9891 5.30251C70.9425 4.35368 72.1763 3.85135 73.4661 3.85135C74.756 3.85135 76.0459 4.35368 76.9432 5.30251C77.8405 6.25135 78.4013 7.47926 78.4013 8.76298C78.4013 10.0467 77.8966 11.3304 76.9432 12.2234C76.0459 13.1723 74.756 13.6746 73.4661 13.6746Z" fill="#2FF19E"/>
<path d="M62.6424 0.446777H59.9505C59.5018 0.446777 59.2775 0.670033 59.2775 0.893289V8.98631C59.3336 9.54445 59.2214 10.1026 59.0532 10.6607C58.8289 11.2189 58.5484 11.6654 58.1559 12.0561C57.7633 12.4468 57.2586 12.7817 56.7539 13.0049C56.2491 13.2282 55.6322 13.284 55.0714 13.284C52.716 13.284 51.1457 11.5538 51.1457 8.98631V0.949103C51.1457 0.725847 50.7532 0.502591 50.5289 0.502591H47.6126C47.5005 0.502591 47.3883 0.558405 47.2762 0.670033C47.164 0.781661 47.164 0.893289 47.1079 1.00492V9.04213C47.1079 11.1631 47.893 13.1724 49.3512 14.6793C50.8093 16.1863 52.8282 17.0793 54.9593 17.0793C56.9782 17.0793 58.941 16.3538 60.4552 15.0142L60.6234 15.1258L59.4457 16.7445V17.4142C59.4457 19.0886 56.9221 19.9817 55.464 19.9817H54.5106C54.4545 19.9817 54.3424 19.9817 54.2863 20.0375C54.2302 20.0375 54.1741 20.0933 54.118 20.1491C54.062 20.2049 54.0059 20.2607 54.0059 20.3165C53.9498 20.3724 53.9498 20.484 53.9498 20.5398V23.1631C53.9498 23.3305 54.0059 23.4421 54.118 23.5538C54.2302 23.6654 54.3984 23.7212 54.5106 23.7212H55.464C59.9505 23.7212 63.2032 21.1538 63.2032 16.2421V0.949103C63.2032 0.837475 63.091 0.670033 63.0349 0.614219C62.9228 0.502591 62.7545 0.446777 62.6424 0.446777Z" fill="#2FF19E"/>
</g>
<defs>
<clipPath id="clip0_6804_3918">
<rect width="83" height="24" fill="white"/>
</clipPath>
</defs>
</svg>
