<svg width="101" height="24" viewBox="0 0 101 24" fill="none" xmlns="http://www.w3.org/2000/svg">
<g clip-path="url(#clip0_6804_3893)">
<path d="M70.7816 21.2955L70.6443 21.2687V11.6753C70.6443 2.98379 70.6534 2.0784 70.7409 2.04475C70.7939 2.02433 72.7324 2.00762 75.0485 2.00762C78.5216 2.00762 79.3886 2.02445 79.9961 2.10366C81.1153 2.24961 81.8052 2.4481 82.6676 2.87225C83.3914 3.22824 83.4652 3.28234 84.1083 3.92748C84.6894 4.51042 84.822 4.6817 85.0368 5.12745C85.1746 5.41344 85.3626 5.89518 85.4546 6.19798C85.6179 6.7354 85.6219 6.78577 85.6241 8.30846C85.6262 9.81444 85.6207 9.88741 85.4662 10.4189C84.8367 12.5837 83.1984 13.9401 80.6118 14.4377C80.0393 14.5479 79.652 14.5683 77.6935 14.5919C76.358 14.608 75.4104 14.6433 75.3743 14.6784C75.3358 14.7157 75.3019 15.9542 75.2827 18.0227L75.2522 21.3077L73.0856 21.3151C71.8939 21.3191 70.8572 21.3103 70.7816 21.2955ZM78.8972 11.0943C79.5895 10.9473 80.3398 10.3979 80.6286 9.82673C80.7875 9.51236 80.9157 8.69071 80.9005 8.08378C80.881 7.30793 80.4944 6.47918 79.9709 6.09091C79.5619 5.78761 79.186 5.67947 78.3038 5.61136C77.6022 5.5572 75.7476 5.58629 75.6397 5.65316C75.5534 5.70658 75.5743 11.0232 75.6611 11.1102C75.7717 11.221 78.3604 11.2083 78.8972 11.0943ZM87.84 21.2962C87.7813 21.2808 87.7305 21.222 87.7271 21.1656C87.7237 21.1092 87.7169 16.8031 87.7118 11.5965L87.7027 2.12997H89.8446H91.9866L92.0266 3.46049C92.0486 4.19227 92.0679 5.83706 92.0695 7.11558C92.0723 9.43639 92.0938 9.89896 92.1987 9.89896C92.2293 9.89896 92.4387 9.72549 92.6639 9.51347C93.5097 8.71742 94.5039 8.16185 95.2586 8.06357C96.3199 7.92537 97.6859 8.03236 98.3574 8.30628C99.8021 8.89553 100.556 9.95381 100.885 11.8531C101.001 12.5209 101.012 13.1259 100.992 17.6841L100.977 21.2788L98.9173 21.2627L96.8574 21.2466L96.8269 16.8727C96.7968 12.5516 96.7948 12.4954 96.6645 12.2128C96.3879 11.6128 95.7424 11.0837 95.0787 10.913C94.5777 10.7842 94.3005 10.7914 93.8458 10.9453C92.957 11.2462 92.3635 11.9874 92.1488 13.0645C92.0716 13.4518 92.0487 14.2534 92.0242 17.4385L91.9941 21.3383L89.9704 21.3312C88.8574 21.3273 87.8988 21.3116 87.84 21.2962ZM0.0133802 9.18018C0.0285379 3.58422 0.0113955 3.79633 0.533749 2.7417C0.752842 2.29935 0.896225 2.1167 1.49422 1.51818C2.09727 0.914608 2.27086 0.778606 2.71592 0.561037C3.7224 0.0690108 3.77537 0.0637032 8.01707 0.0298701L11.7619 0L12.3198 0.380357C14.1154 1.60455 14.6171 1.96119 14.6171 2.01346C14.6171 2.04556 14.5553 2.09593 14.4798 2.12539C14.4043 2.15486 13.8869 2.49292 13.3301 2.87665C12.7733 3.26037 12.2103 3.64162 12.0789 3.72387L11.8402 3.8734L8.26981 3.90399L4.69945 3.93458C4.25186 3.92448 3.76459 4.10335 3.78397 4.77088L3.7672 9.36448C3.75544 12.5865 3.73043 13.9822 3.68344 14.039C3.63064 14.1028 3.23329 14.1199 1.80822 14.1199L0 14.1199L0.0133802 9.18018Z" fill="#204884"/>
<path d="M41.7104 24.0002C41.5894 23.9344 40.8801 23.2082 40.2696 22.6022L39.1205 21.4847C38.6828 21.5157 38.2541 21.6219 37.8171 21.6735C37.2233 21.7437 36.1541 21.854 36.1009 21.7676C36.0639 21.7076 36.0487 21.708 36.0283 21.7695C36.0074 21.8322 35.8014 21.8331 34.9681 21.7742C33.3548 21.6603 32.232 21.361 30.8822 20.6849C30.0021 20.2442 29.5249 19.8943 28.7752 19.1402C27.7096 18.0683 27.0605 17.0051 26.587 15.5558C25.5583 12.4075 25.8692 8.75119 27.3874 6.14197C29.118 3.16775 32.0652 1.64568 36.1004 1.6421C38.2112 1.64022 39.9283 1.99453 41.3912 2.73384C42.2206 3.15296 42.8007 3.5784 43.5241 4.29807C44.7216 5.48929 45.5224 6.91205 45.912 8.95099C46.2176 10.55 46.2119 11.544 46.2052 11.7761C46.1983 12.013 46.2871 13.227 45.6315 15.5271C45.3075 16.6637 44.509 18.0395 43.7237 18.9012C43.4582 19.1924 43.2411 19.4568 43.2411 19.4887C43.2411 19.5506 43.9494 20.2543 44.5533 20.7925C45.7759 21.882 46.0046 22.1394 46.8888 22.9571C47.1353 23.185 47.8399 23.8564 47.9438 23.984C47.955 23.9978 46.7567 23.9782 45.5207 23.9922C44.2848 24.0061 42.9377 23.9937 42.5211 23.9939C42.1894 23.9941 41.7104 24.0002 41.7104 24.0002ZM37.0913 17.9789C38.3274 17.7113 38.693 17.5649 39.1979 17.1357C40.0739 16.391 40.6069 15.3168 40.9242 13.5787C40.9778 13.2852 41.0604 12.7352 41.0381 11.5067C41.0143 10.1917 40.7781 9.18576 40.6895 8.92516C39.9462 6.73922 38.727 5.48576 36.9357 5.30608C36.6927 5.2817 35.9313 5.23483 35.3738 5.30464C34.9088 5.36289 34.6653 5.44018 34.3205 5.55357C33.97 5.66549 33.3068 6.11149 32.9844 6.452C31.816 7.68633 31.2773 9.3607 31.28 11.7493C31.2837 15.0451 32.2988 17.1418 34.1881 17.7557C34.9465 18.0021 36.45 18.1177 37.0913 17.9789ZM9.96228 22.1073C9.69248 21.9704 7.99033 20.813 7.63714 20.5264L7.46216 20.3843L8.03385 19.994C8.34828 19.7792 8.85272 19.4397 9.15483 19.2394C9.45694 19.0391 9.77925 18.8233 9.87107 18.7599C10.2255 18.5151 10.2911 18.5107 13.7627 18.4968C17.4039 18.4822 17.8061 18.5297 18.1286 18.2267C18.4356 17.9383 18.3669 17.3335 18.3763 16.9035C18.3837 16.5662 18.3829 14.5066 18.3763 12.3247L18.3644 8.35757L18.5088 8.30253C18.5882 8.27227 19.4204 8.2475 20.3581 8.2475H22.0631L22.0783 12.2696C22.0998 17.9326 22.103 17.748 21.9739 18.3411C21.7708 19.2743 21.0909 20.4876 20.4762 21.0135C19.7262 21.6553 18.7782 22.1173 18.035 22.2035C17.7832 22.2326 15.9264 22.2547 13.9088 22.2524L10.2404 22.2484L9.96228 22.1073ZM50.4886 21.2304C49.4358 21.2179 49.1011 21.1957 49.1041 21.1386C49.1063 21.0972 49.0965 16.7789 49.0823 11.5424L49.0566 2.02157L51.0466 1.97549C54.7482 1.88976 58.288 1.99411 59.5061 2.22487C60.9999 2.50787 61.9228 2.92979 62.6481 3.66132C63.1939 4.21183 63.5093 4.72697 63.7331 5.43354C63.8915 5.93398 63.9855 6.65754 63.9743 7.29932C63.9614 8.03628 63.8886 8.66092 63.7281 9.13089C63.4984 9.80346 63.1723 10.3639 62.8007 10.725C62.3458 11.167 61.6951 11.6088 60.7733 12.0396C60.5845 12.1278 59.5366 12.5784 59.5366 12.6106C59.5366 12.6779 59.6499 12.7744 59.9943 13.0002C60.7557 13.4994 61.7065 14.5631 62.57 15.8816C62.8279 16.2754 63.1915 16.8041 63.3781 17.0564C63.5646 17.3087 63.9968 17.9143 64.3384 18.4022C64.68 18.8901 65.243 19.6835 65.5896 20.1653C65.9361 20.6471 66.2529 21.0879 66.2937 21.1449C66.363 21.2417 66.2107 21.2475 63.944 21.2353C62.6108 21.2281 61.4302 21.2209 61.3202 21.2192C61.1056 21.216 61.1791 21.318 59.2599 18.3613C57.4001 15.4962 56.6601 14.5489 55.9662 14.1449C55.6729 13.9741 55.6309 13.9672 54.8851 13.9672C54.2268 13.9672 54.0929 13.9835 54.0021 14.0745C53.9026 14.1742 53.8949 14.4287 53.8931 17.6837C53.8918 19.9444 53.8695 21.202 53.8301 21.2318C53.7965 21.2572 53.3434 21.271 52.8231 21.2624C52.3028 21.2538 51.2523 21.2394 50.4886 21.2304ZM56.9593 10.4756C57.4917 10.3562 57.794 10.1865 58.2409 9.75635C58.861 9.15955 59.0578 8.72013 59.0528 7.94382C59.0466 6.98236 58.6159 6.19641 57.914 5.86571C57.3255 5.58844 57.026 5.55262 55.4416 5.57007L53.9522 5.58647L53.9346 7.88046C53.9249 9.14216 53.9329 10.2629 53.9522 10.3711L53.9874 10.5677L54.5801 10.5852C55.5455 10.6137 56.55 10.5674 56.9593 10.4756Z" fill="#CE1126"/>
<path d="M10.9925 16.4933C13.8997 16.4933 16.2565 14.1311 16.2565 11.2171C16.2565 8.30315 13.8997 5.94092 10.9925 5.94092C8.08529 5.94092 5.72852 8.30315 5.72852 11.2171C5.72852 14.1311 8.08529 16.4933 10.9925 16.4933Z" fill="#FCD116"/>
</g>
<defs>
<clipPath id="clip0_6804_3893">
<rect width="101" height="24" fill="white"/>
</clipPath>
</defs>
</svg>
