<svg width="33" height="24" viewBox="0 0 33 24" fill="none" xmlns="http://www.w3.org/2000/svg">
<path fill-rule="evenodd" clip-rule="evenodd" d="M9.49897 14.5389C8.79905 14.6751 7.89558 14.4385 7.40634 13.9117C7.18494 13.6752 7.54204 13.3133 7.76345 13.5534C8.09198 13.9082 8.68121 14.0766 9.15973 14.0658C9.77037 14.0515 10.3132 13.496 9.96678 12.8725C9.48469 12.0088 8.30268 12.2525 7.69203 11.5716C7.19922 11.0233 7.43491 10.1632 8.00985 9.78332C8.61336 9.38553 9.65253 9.39987 10.1489 9.96967C10.3632 10.2134 10.0061 10.5753 9.7918 10.328C9.39184 9.86575 8.44552 9.93025 8.08484 10.4033C7.57061 11.0806 8.33839 11.4462 8.87761 11.6074C9.61682 11.8332 10.4346 12.2417 10.5703 13.0911C10.681 13.7756 10.1525 14.4099 9.49897 14.5389ZM4.82448 8.12407H13.1593C13.7164 8.12407 14.1663 8.5792 14.1663 9.13467V14.9904C14.1663 15.5495 13.7128 16.001 13.1593 16.001H4.58165C4.02457 16.001 3.57462 15.5495 3.57104 14.9904V7.75853C3.57104 7.49692 3.78888 7.31416 4.04599 7.2819L11.7309 6.29639C11.9951 6.29639 12.2058 6.51141 12.2058 6.77302V7.5901H4.34239C4.34239 7.93772 4.44595 8.12407 4.82448 8.12407Z" fill="#ED4C2F"/>
<path fill-rule="evenodd" clip-rule="evenodd" d="M17.591 6.75507C17.2589 6.38953 16.5661 6.37878 16.1625 6.63323C15.7769 6.87692 15.6197 7.43239 15.9483 7.78359C16.3554 8.21722 17.1446 8.06312 17.466 8.61859C17.6981 9.01997 17.3338 9.37834 16.9267 9.3855C16.6054 9.39267 16.2125 9.28516 15.9947 9.0558C15.8483 8.9017 15.609 9.13106 15.7554 9.28516C16.0804 9.62561 16.6839 9.77613 17.1517 9.68653C17.5874 9.60411 17.9409 9.19557 17.8695 8.75836C17.7802 8.21364 17.2339 7.94844 16.7411 7.80509C16.3839 7.70117 15.8697 7.46464 16.2125 7.03102C16.4554 6.7264 17.0839 6.68698 17.3517 6.98084C17.4945 7.14211 17.7338 6.91275 17.591 6.75507ZM19.9621 8.41074V9.55394C19.9621 9.76896 19.6229 9.76896 19.6229 9.55394V8.43582C19.6122 8.29964 19.5336 8.1778 19.4158 8.10971C19.1765 8.00578 18.7373 8.05237 18.4801 8.38207V9.55394C18.4801 9.76896 18.1409 9.76896 18.1409 9.55394V6.62248C18.1409 6.40745 18.4801 6.40745 18.4801 6.62248V7.94127C18.8944 7.66533 19.4193 7.694 19.6693 7.86602C19.8586 7.97711 19.9693 8.18855 19.9621 8.41074ZM25.6187 8.56125C25.6222 8.54692 25.6258 8.53617 25.6294 8.52542C25.7115 8.25664 25.9865 8.10254 26.265 8.09537C26.5864 8.08821 26.765 8.30323 26.8221 8.56125H25.6187ZM27.1756 8.7261C27.1685 8.27814 26.9328 7.8696 26.4436 7.78001C26.0222 7.70117 25.5294 7.91977 25.3508 8.30323C25.1651 8.70102 25.2437 9.24932 25.6115 9.52885C26.0079 9.82988 26.6293 9.73671 27.0364 9.51452C27.2256 9.41059 27.0542 9.12748 26.865 9.2314C26.6078 9.37117 26.2686 9.44284 25.9793 9.34608C25.7615 9.27441 25.6401 9.09522 25.6044 8.89095H27.0078C27.1006 8.89095 27.1756 8.81928 27.1756 8.7261ZM27.8648 8.56125C27.8684 8.5505 27.872 8.53617 27.8756 8.52542C27.9577 8.25664 28.2327 8.10254 28.5112 8.09537C28.8326 8.08821 29.0112 8.30323 29.0683 8.56125H27.8648ZM29.4254 8.72252C29.4183 8.27456 29.1826 7.86602 28.6933 7.77642C28.2719 7.69758 27.7791 7.91619 27.6006 8.29964C27.4149 8.69743 27.4935 9.24574 27.8613 9.52527C28.2577 9.8263 28.879 9.73312 29.2861 9.51093C29.4754 9.40701 29.304 9.12389 29.1147 9.22782C28.8576 9.37117 28.5183 9.43926 28.2291 9.3425C28.0113 9.27083 27.8898 9.09164 27.8541 8.88737H29.2576C29.3468 8.88737 29.4218 8.8157 29.4254 8.72252ZM21.362 8.12046C21.0084 8.12046 20.7192 8.39999 20.7192 8.74402C20.7192 9.08806 21.0049 9.36758 21.362 9.36758C21.7191 9.36758 22.0012 9.08806 22.0012 8.74402C22.0012 8.39999 21.7119 8.12046 21.362 8.12046ZM21.362 9.71879C20.8085 9.71879 20.3585 9.28158 20.3585 8.74044C20.3585 8.1993 20.8085 7.76209 21.362 7.76209C21.9155 7.76209 22.3654 8.1993 22.3654 8.74044C22.3654 9.28158 21.9155 9.71879 21.362 9.71879ZM23.851 9.36758C23.4975 9.36758 23.2118 9.08806 23.2118 8.74402C23.2154 8.43224 23.4439 8.17421 23.751 8.12763H23.7582C23.7903 8.12404 23.8224 8.12046 23.8546 8.12046C24.1045 8.12046 24.3331 8.26381 24.4402 8.49316C24.4402 8.49316 24.4402 8.49316 24.4402 8.49675C24.4759 8.57559 24.4938 8.65801 24.4938 8.74402C24.4902 9.08806 24.2045 9.36758 23.851 9.36758ZM23.851 7.76567C23.5653 7.76567 23.2939 7.88394 23.1011 8.09179V7.85885C23.1011 7.64741 22.7618 7.64741 22.7618 7.85885V10.6219C22.7618 10.8333 23.1011 10.8333 23.1011 10.6219V9.39267C23.2939 9.60411 23.5653 9.72237 23.851 9.71879C24.4045 9.71879 24.8545 9.28158 24.8545 8.74044C24.8545 8.1993 24.4045 7.76567 23.851 7.76567Z" fill="#ED4C2F"/>
<path fill-rule="evenodd" clip-rule="evenodd" d="M22.1546 12.808C22.7974 12.808 23.3224 13.3312 23.3224 13.9798C23.3224 14.6285 22.801 15.1517 22.1546 15.1517C21.5083 15.1517 20.9869 14.6285 20.9869 13.9798C20.9869 13.3312 21.5118 12.808 22.1546 12.808ZM23.4616 11.9909H24.2508V15.9652H23.4616V15.5173C22.6153 16.2412 21.3404 16.1372 20.6191 15.2879C19.8977 14.4386 20.0013 13.1592 20.8476 12.4353C21.6011 11.7938 22.7046 11.7938 23.4581 12.4353V11.9909H23.4616ZM16.6052 13.4495V11.3028H17.8194C18.5014 11.3028 19.055 11.783 19.055 12.3779C19.055 12.9728 18.5014 13.453 17.8194 13.453L16.6052 13.4495ZM15.7089 16.0011H16.6052V14.3526H17.8194C19.0764 14.3526 20.0941 13.4674 20.0941 12.3779C20.0941 11.2885 19.0728 10.4033 17.8194 10.4033H15.7053L15.7089 16.0011ZM26.3935 17.7033H25.3221L26.4684 15.528L24.5829 11.9551H25.7471L27.0505 14.4242L28.354 11.9551H29.4253L26.3935 17.7033Z" fill="#ED4C2F"/>
</svg>
